<mxfile host="app.diagrams.net" modified="2021-12-14T20:50:33.532Z" agent="5.0 (Windows NT 10.0; Win64; x64) AppleWebKit/537.36 (KHTML, like Gecko) Chrome/96.0.4664.93 Safari/537.36 Edg/96.0.1054.53" etag="BY4J4xku5Ha4MUPJwD65" version="15.8.8" type="github">
  <diagram id="5soThCoMKbHqW5SyfzDt" name="Page-1">
    <mxGraphModel dx="2272" dy="1862" grid="1" gridSize="10" guides="1" tooltips="1" connect="1" arrows="1" fold="1" page="1" pageScale="1" pageWidth="850" pageHeight="1100" math="0" shadow="0">
      <root>
        <mxCell id="0" />
        <mxCell id="1" parent="0" />
        <mxCell id="GGdZg751sg8aVn9w_vVH-1" value="τμήμα Α.Ε.Ι." style="rounded=0;whiteSpace=wrap;html=1;" vertex="1" parent="1">
          <mxGeometry x="60" y="110" width="80" height="40" as="geometry" />
        </mxCell>
        <mxCell id="GGdZg751sg8aVn9w_vVH-2" value="&lt;u&gt;κωδικός&lt;/u&gt;" style="ellipse;whiteSpace=wrap;html=1;" vertex="1" parent="1">
          <mxGeometry x="-70" y="115" width="80" height="30" as="geometry" />
        </mxCell>
        <mxCell id="GGdZg751sg8aVn9w_vVH-3" value="ονομασία" style="ellipse;whiteSpace=wrap;html=1;" vertex="1" parent="1">
          <mxGeometry x="200" y="220" width="70" height="40" as="geometry" />
        </mxCell>
        <mxCell id="GGdZg751sg8aVn9w_vVH-4" value="πόλη έδρας" style="ellipse;whiteSpace=wrap;html=1;" vertex="1" parent="1">
          <mxGeometry x="-30" y="-120" width="80" height="30" as="geometry" />
        </mxCell>
        <mxCell id="GGdZg751sg8aVn9w_vVH-5" value="συντελεστής ΕΒΕ" style="ellipse;whiteSpace=wrap;html=1;" vertex="1" parent="1">
          <mxGeometry x="150" y="290" width="120" height="50" as="geometry" />
        </mxCell>
        <mxCell id="GGdZg751sg8aVn9w_vVH-6" value="σχολή" style="ellipse;whiteSpace=wrap;html=1;" vertex="1" parent="1">
          <mxGeometry x="190" y="50" width="120" height="80" as="geometry" />
        </mxCell>
        <mxCell id="GGdZg751sg8aVn9w_vVH-7" value="αριθμός εισακτέων" style="ellipse;whiteSpace=wrap;html=1;" vertex="1" parent="1">
          <mxGeometry y="310" width="120" height="40" as="geometry" />
        </mxCell>
        <mxCell id="GGdZg751sg8aVn9w_vVH-8" value="συντελεστής βαρύτητας ή επιστημονικά πεδία" style="ellipse;whiteSpace=wrap;html=1;" vertex="1" parent="1">
          <mxGeometry x="130" y="420" width="150" height="60" as="geometry" />
        </mxCell>
        <mxCell id="GGdZg751sg8aVn9w_vVH-9" value="" style="endArrow=none;html=1;rounded=0;entryX=0.5;entryY=0;entryDx=0;entryDy=0;exitX=0.5;exitY=1;exitDx=0;exitDy=0;" edge="1" parent="1" source="GGdZg751sg8aVn9w_vVH-4" target="GGdZg751sg8aVn9w_vVH-1">
          <mxGeometry width="50" height="50" relative="1" as="geometry">
            <mxPoint x="70" y="230" as="sourcePoint" />
            <mxPoint x="120" y="180" as="targetPoint" />
          </mxGeometry>
        </mxCell>
        <mxCell id="GGdZg751sg8aVn9w_vVH-10" value="" style="endArrow=none;html=1;rounded=0;" edge="1" parent="1">
          <mxGeometry width="50" height="50" relative="1" as="geometry">
            <mxPoint x="440" y="200" as="sourcePoint" />
            <mxPoint x="490" y="150" as="targetPoint" />
          </mxGeometry>
        </mxCell>
      </root>
    </mxGraphModel>
  </diagram>
</mxfile>
